<?xml version="1.0" encoding="utf-8"?>
<!-- Generator: Adobe Illustrator 23.0.2, SVG Export Plug-In . SVG Version: 6.00 Build 0)  -->
<svg version="1.1" id="Layer_1" xmlns="http://www.w3.org/2000/svg" xmlns:xlink="http://www.w3.org/1999/xlink" x="0px" y="0px"
	 viewBox="0 0 2000 2000" style="enable-background:new 0 0 2000 2000;" xml:space="preserve">
<style type="text/css">
	.st0{fill:url(#SVGID_1_);}
	.st1{fill:url(#SVGID_2_);}
	.st2{fill:#FF0000;}
	.st3{fill:url(#SVGID_3_);}
	.st4{fill:#EFEFEF;}
	.st5{opacity:0.79;fill:url(#SVGID_4_);}
	.st6{fill:#474747;}
	.st7{fill:#C4C4C4;}
</style>
<linearGradient id="SVGID_1_" gradientUnits="userSpaceOnUse" x1="941.1628" y1="2261.0562" x2="1034.3749" y2="2026.6138" gradientTransform="matrix(0.7071 -0.7071 -0.7071 -0.7071 1306.8644 3157.5471)">
	<stop  offset="2.237672e-07" style="stop-color:#F26321"/>
	<stop  offset="0.3476" style="stop-color:#F58E1A"/>
	<stop  offset="0.7834" style="stop-color:#F8BE12"/>
	<stop  offset="1" style="stop-color:#F9D10F"/>
</linearGradient>
<path class="st0" d="M591.76,892.58l-0.18-0.18c-58.37-58.16-152.82-58.09-211.08,0.18c-25.48,25.48-39.8,57.88-43.03,91.17
	c12.63-19.88,26.74-38.78,44.19-54.33c22.94-20.48,52.25-35.22,84.94-36.1c23.79-0.63,48.73,6.16,70.58,19.28
	c18.16,10.91,34.69,27.02,41.41,46.62c7,20.3,2.11,42.22-10.84,56.51c-10.24,11.29-25.58,18.12-41.98,17.07
	c-16.36-1.02-33.43-10.34-43.03-24.88c-0.77-1.13-1.51-1.93-2.85-2.15c-0.04-0.04-0.07,0-0.11-0.04
	c0.84,15.27,5.98,33.15,19.04,44.86c9.57,8.66,22.24,13.02,34.27,13.58c12.07,0.53,23.54-2.5,34.06-6.97
	c18.51-7.88,34.62-20.55,45.32-37.37c10.66-16.78,15.73-37.76,13.02-59.04c-2.92-22.48-14.32-44.51-29.38-63.09
	C594.72,895.96,593.24,894.27,591.76,892.58z"/>
<linearGradient id="SVGID_2_" gradientUnits="userSpaceOnUse" x1="357.1727" y1="1029.2838" x2="679.3569" y2="1029.2838">
	<stop  offset="1.118836e-07" style="stop-color:#2649A3"/>
	<stop  offset="1" style="stop-color:#00ADEF"/>
</linearGradient>
<path class="st1" d="M679.36,1055.28c0,0,0,0.02-0.02,0.04c0,0.04-0.04,0.09-0.07,0.15c-0.04,0.06-0.06,0.13-0.11,0.2
	c-0.04,0.07-0.07,0.15-0.11,0.22c-0.48,0.82-0.93,1.61-1.37,2.41c-0.11,0.19-0.22,0.37-0.33,0.56c-0.06,0.09-0.11,0.2-0.19,0.3
	c-8.87,14.54-45.55,65.97-132.69,88.99c-4.19,0.74-8.42,1.35-12.65,1.84c-45.07,5.08-90.92-5.64-123.93-41.99
	c-29.1-32.05-37.61-76.43-21.14-117.63c-17.17,32.25-20.11,62-8.51,96.83c-38.08-60.02-23.63-128.03,36.26-165.26
	c30.38-18.88,64.25-17.64,92.49-6.21c27.47,11.11,42.32,34.29,46.37,56.51c4.17,23-8.96,36.65-22.26,45.92
	c-13.3,9.27-23.09,3.99-32.05-4.19c-5.93-5.4-2.8-12.59,2.19-16.54c-1.67,3.38-2.49,7.25,1.09,10.13
	c6.47,5.17,16.12,3.69,21.22-3.89c10.7-15.86,0.39-33.76-16.73-41.03c-36.32-15.41-70.15,6.62-79.72,41.51
	c-11.18,40.73,7.55,71.13,43.6,91.47c17.79,10.03,36.26,15.3,54.94,16.88h0.06c0.04,0,0.11,0,0.2,0.02
	c3.89,0.59,50.65,6.92,106.79-23.7c0.04-0.02,0.07-0.04,0.11-0.06C647.86,1080.52,663.59,1069.64,679.36,1055.28z"/>
<path class="st2" d="M525.69,1112.5h-0.06v-0.02C525.64,1112.48,525.66,1112.48,525.69,1112.5z"/>
<linearGradient id="SVGID_3_" gradientUnits="userSpaceOnUse" x1="597.9421" y1="1021.7067" x2="547.702" y2="1124.2435">
	<stop  offset="1.118836e-07" style="stop-color:#2649A3"/>
	<stop  offset="1" style="stop-color:#00ADEF"/>
</linearGradient>
<path class="st3" d="M604.72,1082.71c-5.94,2-12.22,3.91-18.84,5.62c-19.36,5.01-41.53,8.35-65.56,7.83
	c-1.8-0.04-3.6-0.09-5.42-0.19c-1.09-0.06-2.23-0.11-3.34-0.19c-0.59-0.04-1.19-0.07-1.8-0.13c-2.26-0.13-4.54-0.33-6.84-0.56
	c-4.58-0.46-9.22-1.06-13.89-1.84c-0.95-0.15-1.91-0.32-2.87-0.52c-0.41-0.06-0.8-0.13-1.21-0.2c-0.19-0.02-0.35-0.06-0.54-0.09
	c-0.33-0.04-0.65-0.11-0.98-0.17c-0.82-0.15-1.34-0.24-1.52-0.28c0.07,0.04,0.17,0.07,0.24,0.11
	c54.44,25.34,113.43,2.95,119.28,0.61c0.13-0.04,0.22-0.07,0.3-0.11c0.13-0.06,0.19-0.07,0.19-0.07s0,0,0.02-0.02
	c20.25-7.38,41.36-19.49,61.82-38.58C662.48,1054.84,640.13,1070.68,604.72,1082.71z"/>
<path class="st4" d="M662.88,885.01c-1.68-0.2-3.34-0.18-4.93,0.02c-0.92-8.56-8.07-15.73-17.56-16.88
	c-3.04-0.37-6.03-0.08-8.74,0.76c-3.36-9.01-10.9-16.19-20.84-18.57c-10.32-2.47-20.69,0.91-27.77,7.99
	c-0.08,0.05-0.11,0.1-0.17,0.16c-3.72,3.78-6.48,8.56-7.87,14.05c6.98,4.95,13.58,10.52,19.76,16.67l0.29,0.28l0.1,0.11
	c1.48,1.7,3.02,3.46,4.49,5.3c7.79,9.61,16.9,22.93,23.25,38.74c1.44,0.27,2.93,0.42,4.44,0.46c7.99,0.23,15.37-2.69,21.14-7.68
	c1.93-1.69,3.7-3.6,5.23-5.72c0.39-0.55,0.78-1.12,1.15-1.69c1.21,0.39,2.47,0.69,3.79,0.83c5.43,0.68,10.56-0.94,14.37-4.04
	c3.36-2.73,5.67-6.63,6.21-11.13C680.4,895.06,673.08,886.25,662.88,885.01z"/>
<radialGradient id="SVGID_4_" cx="621.1232" cy="919.4991" r="62.6753" gradientTransform="matrix(1 0 0 0.7248 0 253.0544)" gradientUnits="userSpaceOnUse">
	<stop  offset="0.0245" style="stop-color:#FFFFFF"/>
	<stop  offset="0.5778" style="stop-color:#E6ECFF"/>
	<stop  offset="1" style="stop-color:#D0DCFF"/>
</radialGradient>
<path class="st5" d="M661.21,886.55c-1.68-0.23-3.31-0.19-4.93,0.01c-0.91-8.55-8.07-15.73-17.55-16.88
	c-3.03-0.37-6.02-0.07-8.75,0.77c-3.34-9.02-10.9-16.21-20.84-18.57c-9.54-2.27-19.12,0.43-26.1,6.45c-0.08,0.05-0.11,0.1-0.17,0.16
	c-4,3.47-7.1,8.02-8.85,13.36c0.33,0.23,0.65,0.45,0.98,0.69c6.98,4.95,13.58,10.52,19.76,16.67l0.29,0.28l0.1,0.11
	c1.48,1.7,3.02,3.46,4.49,5.3c7.79,9.61,16.9,22.93,23.25,38.74c0.25,0.61,0.48,1.24,0.72,1.86c0.69,0.08,1.39,0.12,2.06,0.15
	c8.77,0.24,16.82-3.29,22.8-9.22c1.76-1.76,3.36-3.71,4.71-5.86c0.17,0.06,0.35,0.11,0.52,0.15c1.04,0.32,2.13,0.55,3.28,0.69
	c6.27,0.78,12.18-1.5,16.03-5.58c2.47-2.58,4.09-5.88,4.55-9.59C678.74,896.6,671.44,887.79,661.21,886.55z"/>
<path class="st6" d="M710,942.75c0.79-1.69,1.95-2.97,3.45-3.85c1.51-0.88,3.33-1.32,5.48-1.32c1.65,0,3.13,0.38,4.46,1.13
	c1.32,0.75,2.45,1.84,3.39,3.26c0.93,1.42,1.62,3.14,2.07,5.15h11.88c-0.75-4.44-2.11-8.22-4.08-11.36
	c-1.97-3.14-4.46-5.53-7.47-7.18c-3.01-1.65-6.43-2.47-10.25-2.47c-4.63,0-8.59,0.89-11.88,2.68c-3.29,1.79-5.8,4.37-7.53,7.76
	c-1.73,3.39-2.59,7.48-2.59,12.28v16.7c0,4.8,0.86,8.89,2.59,12.28c2.61,5.12,7.76,9.12,13.43,10.14c2.77,0.5,5.6,0.4,8.38,0.11
	c2.73-0.29,5.44-0.95,7.84-2.32c3-1.65,5.48-4.04,7.45-7.18c1.97-3.14,3.34-6.92,4.12-11.36h-11.88c-0.42,2.04-1.09,3.77-2.01,5.19
	c-0.92,1.42-2.05,2.5-3.39,3.24c-1.34,0.74-2.85,1.11-4.52,1.11c-2.15,0-3.97-0.44-5.48-1.32c-1.51-0.88-2.66-2.16-3.45-3.83
	c-0.8-1.67-1.19-3.7-1.19-6.07v-16.7C708.81,946.47,709.2,944.44,710,942.75z"/>
<path class="st6" d="M782.13,928.9c-3.36-1.86-7.25-2.78-11.65-2.78c-4.41,0-8.29,0.93-11.65,2.78c-3.36,1.86-5.96,4.48-7.8,7.87
	c-1.84,3.39-2.76,7.32-2.76,11.78v17.24c0,4.46,0.92,8.39,2.76,11.78c1.84,3.39,4.44,6.01,7.8,7.87c3.36,1.86,7.25,2.78,11.65,2.78
	c4.41,0,8.29-0.93,11.65-2.78c3.36-1.85,5.96-4.48,7.8-7.87c1.84-3.39,2.76-7.32,2.76-11.78v-17.24c0-4.46-0.92-8.39-2.76-11.78
	C788.1,933.38,785.49,930.76,782.13,928.9z M780.82,966.08c0,2.12-0.43,3.99-1.28,5.61c-0.85,1.62-2.06,2.87-3.62,3.74
	c-1.56,0.88-3.38,1.32-5.44,1.32c-2.06,0-3.88-0.44-5.44-1.32s-2.77-2.13-3.62-3.74c-0.85-1.62-1.28-3.49-1.28-5.61v-17.82
	c0-2.12,0.42-3.99,1.28-5.61c0.85-1.62,2.06-2.87,3.62-3.74s3.37-1.32,5.44-1.32c2.06,0,3.88,0.44,5.44,1.32
	c1.56,0.88,2.77,2.13,3.62,3.74c0.85,1.62,1.28,3.49,1.28,5.61V966.08z"/>
<polygon class="st6" points="830.69,967.75 819.1,926.75 804,926.75 804,987.59 814.41,987.59 814.41,945.19 825.63,980.81 
	835.75,980.81 846.97,944.38 846.97,987.59 857.39,987.59 857.39,926.75 842.28,926.75 "/>
<path class="st6" d="M905.19,929.07c-2.89-1.55-6.23-2.32-10.02-2.32h-12.93H876h-5.23v60.84h11.46v-23.6h12.93
	c3.79,0,7.13-0.77,10.02-2.3c2.89-1.53,5.13-3.7,6.72-6.51c1.59-2.8,2.38-6.06,2.38-9.77c0-3.71-0.79-6.97-2.38-9.79
	C910.31,932.8,908.08,930.62,905.19,929.07z M901.53,949.34c-0.59,1.14-1.4,2.03-2.45,2.66c-1.05,0.63-2.25,0.94-3.62,0.94h-13.22
	V937.8h13.22c1.39,0,2.61,0.31,3.66,0.94c1.05,0.63,1.85,1.52,2.43,2.68c0.57,1.16,0.86,2.49,0.86,4
	C902.41,946.89,902.11,948.2,901.53,949.34z"/>
<path class="st6" d="M955.42,965.87c0,3.49-0.94,6.19-2.82,8.12c-1.88,1.92-4.54,2.89-7.97,2.89c-3.4,0-6.04-0.96-7.91-2.89
	c-1.87-1.92-2.8-4.63-2.8-8.12v-39.12h-11.46v38.83c0,4.77,0.86,8.85,2.59,12.24c1.73,3.39,4.25,5.97,7.57,7.74
	c3.32,1.77,7.32,2.66,12.01,2.66c4.69,0,8.7-0.89,12.03-2.66c3.33-1.77,5.87-4.35,7.62-7.74c1.74-3.39,2.61-7.47,2.61-12.24v-38.83
	h-11.46V965.87z"/>
<polygon class="st6" points="1015.67,937.8 1015.67,926.75 971.07,926.75 971.07,937.8 987.64,937.8 987.64,987.59 999.1,987.59 
	999.1,937.8 "/>
<path class="st6" d="M1036,926.75l-23.26,60.84h12.34l3.42-9.75h22.29l3.42,9.75h12.34l-23.26-60.84H1036z M1032.37,966.79
	l7.27-20.75l7.27,20.75H1032.37z"/>
<polygon class="st6" points="1064.04,937.8 1080.61,937.8 1080.61,987.59 1092.07,987.59 1092.07,937.8 1108.64,937.8 
	1108.64,926.75 1064.04,926.75 "/>
<rect x="1114.5" y="926.75" class="st6" width="11.88" height="60.84"/>
<path class="st6" d="M1171.55,928.9c-3.36-1.86-7.25-2.78-11.65-2.78c-4.41,0-8.29,0.93-11.65,2.78c-3.36,1.86-5.96,4.48-7.8,7.87
	c-1.84,3.39-2.76,7.32-2.76,11.78v17.24c0,4.46,0.92,8.39,2.76,11.78c1.84,3.39,4.44,6.01,7.8,7.87c3.36,1.86,7.25,2.78,11.65,2.78
	c4.41,0,8.29-0.93,11.65-2.78c3.36-1.85,5.96-4.48,7.8-7.87c1.84-3.39,2.76-7.32,2.76-11.78v-17.24c0-4.46-0.92-8.39-2.76-11.78
	C1177.51,933.38,1174.91,930.76,1171.55,928.9z M1170.23,966.08c0,2.12-0.43,3.99-1.28,5.61c-0.85,1.62-2.06,2.87-3.62,3.74
	c-1.56,0.88-3.38,1.32-5.44,1.32c-2.06,0-3.88-0.44-5.44-1.32c-1.56-0.88-2.77-2.13-3.62-3.74c-0.85-1.62-1.28-3.49-1.28-5.61
	v-17.82c0-2.12,0.42-3.99,1.28-5.61c0.85-1.62,2.06-2.87,3.62-3.74c1.56-0.88,3.37-1.32,5.44-1.32c2.06,0,3.88,0.44,5.44,1.32
	c1.56,0.88,2.77,2.13,3.62,3.74c0.85,1.62,1.28,3.49,1.28,5.61V966.08z"/>
<polygon class="st6" points="1229.06,971.29 1207.43,926.75 1193.41,926.75 1193.41,987.54 1204.37,987.54 1204.37,943.69 
	1225.92,987.54 1240.02,987.54 1240.02,926.75 1229.06,926.75 "/>
<path class="st6" d="M1269.98,926.75l-23.26,60.84h12.34l3.42-9.75h22.29l3.42,9.75h12.34l-23.26-60.84H1269.98z M1266.35,966.79
	l7.27-20.75l7.27,20.75H1266.35z"/>
<polygon class="st6" points="1319.52,976.54 1319.52,926.75 1308.06,926.75 1308.06,987.59 1313.16,987.59 1319.52,987.59 
	1348.81,987.59 1348.81,976.54 "/>
<path class="st6" d="M709.14,1029.31c0.8-1.69,1.95-2.97,3.45-3.85c1.51-0.88,3.33-1.32,5.48-1.32c1.65,0,3.13,0.38,4.46,1.13
	c1.32,0.75,2.45,1.84,3.39,3.26c0.93,1.42,1.62,3.14,2.07,5.15h11.88c-0.75-4.44-2.11-8.22-4.08-11.36
	c-1.97-3.14-4.46-5.53-7.47-7.18c-3.01-1.65-6.43-2.47-10.25-2.47c-4.63,0-8.59,0.89-11.88,2.68c-3.29,1.79-5.8,4.37-7.53,7.76
	c-1.73,3.39-2.59,7.48-2.59,12.28v16.7c0,4.8,0.86,8.89,2.59,12.28c0.95,1.87,2.2,3.58,3.73,5.02c1.6,1.51,3.51,2.61,5.43,3.67
	c3.79,2.08,8.22,1.98,12.4,1.63c2.27-0.19,4.51-0.73,6.6-1.65c0.51-0.22,1-0.47,1.49-0.73c3-1.65,5.48-4.04,7.45-7.18
	c1.97-3.14,3.34-6.93,4.12-11.36h-11.88c-0.42,2.04-1.09,3.77-2.01,5.19c-0.92,1.42-2.05,2.5-3.39,3.24
	c-1.34,0.74-2.85,1.11-4.52,1.11c-2.15,0-3.98-0.44-5.48-1.32c-1.51-0.88-2.66-2.15-3.45-3.83c-0.79-1.67-1.19-3.7-1.19-6.07v-16.7
	C707.95,1033.03,708.35,1031,709.14,1029.31z"/>
<polygon class="st6" points="760.96,1013.31 749.5,1013.31 749.5,1074.14 754.6,1074.14 760.96,1074.14 790.25,1074.14 
	790.25,1063.1 760.96,1063.1 "/>
<rect x="797.78" y="1013.31" class="st6" width="11.88" height="60.84"/>
<polygon class="st6" points="848.91,1054.31 837.32,1013.31 822.22,1013.31 822.22,1074.14 832.63,1074.14 832.63,1031.75 
	843.85,1067.36 853.97,1067.36 865.19,1030.94 865.19,1074.14 875.6,1074.14 875.6,1013.31 860.5,1013.31 "/>
<path class="st6" d="M905.56,1013.31l-23.26,60.84h12.34l3.42-9.75h22.29l3.42,9.75h12.34l-23.26-60.84H905.56z M901.93,1053.35
	l7.27-20.75l7.27,20.75H901.93z"/>
<polygon class="st6" points="933.6,1024.35 950.17,1024.35 950.17,1074.14 961.63,1074.14 961.63,1024.35 978.2,1024.35 
	978.2,1013.31 933.6,1013.31 "/>
<polygon class="st6" points="989.04,1013.31 984.89,1013.31 984.89,1074.14 989.04,1074.14 996.36,1074.14 1025.65,1074.14 
	1025.65,1063.1 996.36,1063.1 996.36,1049.46 1021.04,1049.46 1021.04,1038.41 996.36,1038.41 996.36,1024.35 1025.65,1024.35 
	1025.65,1013.31 996.36,1013.31 "/>
<path class="st6" d="M1090.43,1059.73c2.12-4.84,3.18-10.59,3.18-17.26h-11.05c0,4.49-0.57,8.4-1.72,11.74
	c-0.07,0.21-0.15,0.42-0.23,0.62l-7.51-8.26c-1.92-2.12-3.58-4.2-4.96-6.25c-1.38-2.05-2.43-3.99-3.16-5.82
	c-0.73-1.83-1.09-3.48-1.09-4.96c0-2.68,0.57-4.75,1.72-6.21c1.14-1.46,2.75-2.2,4.81-2.2c1.78,0,3.17,0.68,4.14,2.05
	c0.98,1.37,1.46,3.28,1.46,5.73v1.67h11.46v-1.67c0-5.13-1.49-9.1-4.46-11.9c-2.97-2.8-7.17-4.2-12.61-4.2
	c-5.47,0-9.69,1.46-12.68,4.37c-2.98,2.91-4.48,7.04-4.48,12.36c0,2.45,0.35,4.84,1.05,7.15c0.55,1.81,1.3,3.58,2.25,5.32
	c-1.9,0.85-3.54,1.97-4.9,3.39c-2.89,2.98-4.33,6.96-4.33,11.92c0,3.68,0.74,6.83,2.22,9.43c1.48,2.61,3.63,4.6,6.44,5.96
	c2.82,1.37,6.21,2.05,10.17,2.05c5.86,0,10.84-1.3,14.94-3.89c0.22-0.14,0.43-0.3,0.65-0.45l3.49,3.71h12.93l-9.72-10.69
	C1089.19,1062.29,1089.85,1061.06,1090.43,1059.73z M1068.05,1064.6c-3.15,0-5.59-0.63-7.32-1.9c-1.73-1.27-2.59-3.06-2.59-5.38
	c0-3.15,0.8-5.59,2.41-7.32c0.34-0.36,0.71-0.68,1.11-0.97c0.28,0.31,0.55,0.62,0.84,0.92l12.1,12.86
	C1072.69,1064,1070.51,1064.6,1068.05,1064.6z"/>
<path class="st6" d="M1149.01,1015.46c-3.36-1.85-7.25-2.78-11.65-2.78c-4.41,0-8.29,0.93-11.65,2.78c-3.36,1.86-5.96,4.48-7.8,7.87
	c-1.84,3.39-2.76,7.32-2.76,11.78v17.24c0,4.46,0.92,8.39,2.76,11.78c1.84,3.39,4.44,6.01,7.8,7.87c3.36,1.86,7.25,2.78,11.65,2.78
	c4.41,0,8.29-0.93,11.65-2.78s5.96-4.48,7.8-7.87c1.84-3.39,2.76-7.32,2.76-11.78v-17.24c0-4.46-0.92-8.39-2.76-11.78
	C1154.98,1019.94,1152.37,1017.32,1149.01,1015.46z M1147.7,1052.64c0,2.12-0.43,3.99-1.28,5.61c-0.85,1.62-2.06,2.87-3.62,3.74
	c-1.56,0.88-3.38,1.32-5.44,1.32c-2.06,0-3.88-0.44-5.44-1.32c-1.56-0.88-2.77-2.13-3.62-3.74c-0.85-1.62-1.28-3.49-1.28-5.61
	v-17.83c0-2.12,0.42-3.99,1.28-5.61c0.85-1.62,2.06-2.87,3.62-3.74c1.56-0.88,3.38-1.32,5.44-1.32c2.06,0,3.88,0.44,5.44,1.32
	c1.56,0.88,2.77,2.13,3.62,3.74c0.85,1.62,1.28,3.49,1.28,5.61V1052.64z"/>
<path class="st6" d="M1181.86,1029.31c0.8-1.69,1.95-2.97,3.45-3.85c1.51-0.88,3.33-1.32,5.48-1.32c1.65,0,3.13,0.38,4.46,1.13
	c1.32,0.75,2.45,1.84,3.39,3.26c0.93,1.42,1.62,3.14,2.07,5.15h11.88c-0.75-4.44-2.11-8.22-4.08-11.36
	c-1.97-3.14-4.46-5.53-7.47-7.18c-3.01-1.65-6.43-2.47-10.25-2.47c-4.63,0-8.59,0.89-11.88,2.68c-3.29,1.79-5.8,4.37-7.53,7.76
	c-1.73,3.39-2.59,7.48-2.59,12.28v16.7c0,4.8,0.86,8.89,2.59,12.28c3,5.88,9.04,9.58,15.49,10.33c4.16,0.48,8.44-0.12,12.33-1.69
	c4-1.61,6.99-4.24,9.28-7.89c1.97-3.14,3.34-6.93,4.12-11.36h-11.88c-0.42,2.04-1.09,3.77-2.01,5.19c-0.92,1.42-2.05,2.5-3.39,3.24
	c-1.34,0.74-2.85,1.11-4.52,1.11c-2.15,0-3.97-0.44-5.48-1.32c-1.51-0.88-2.66-2.15-3.45-3.83c-0.8-1.67-1.19-3.7-1.19-6.07v-16.7
	C1180.67,1033.03,1181.06,1031,1181.86,1029.31z"/>
<polygon class="st6" points="1226.36,1013.31 1222.21,1013.31 1222.21,1074.14 1226.36,1074.14 1233.68,1074.14 1262.97,1074.14 
	1262.97,1063.1 1233.68,1063.1 1233.68,1049.46 1258.36,1049.46 1258.36,1038.41 1233.68,1038.41 1233.68,1024.35 1262.97,1024.35 
	1262.97,1013.31 1233.68,1013.31 "/>
<path class="st6" d="M1290.83,1013.31l-23.26,60.84h12.34l3.42-9.75h22.29l3.42,9.75h12.34l-23.26-60.84H1290.83z M1287.2,1053.35
	l7.27-20.75l7.27,20.75H1287.2z"/>
<polygon class="st6" points="1364.56,1057.85 1342.93,1013.31 1328.91,1013.31 1328.91,1074.1 1339.87,1074.1 1339.87,1030.24 
	1361.42,1074.1 1375.52,1074.1 1375.52,1013.31 1364.56,1013.31 "/>
<path class="st6" d="M1423.49,1051.17h9.2v1.01c0,2.2-0.42,4.11-1.25,5.73c-0.84,1.62-2.03,2.85-3.58,3.7
	c-1.55,0.85-3.36,1.28-5.42,1.28c-2.09,0-3.93-0.39-5.52-1.17c-1.59-0.78-2.82-1.9-3.68-3.35c-0.86-1.45-1.3-3.12-1.3-5.02v-17.95
	c0-2.15,0.42-4.04,1.28-5.69c0.85-1.65,2.05-2.91,3.6-3.81c1.55-0.89,3.34-1.34,5.38-1.34c1.39,0,2.74,0.24,4.04,0.73
	c1.3,0.49,2.43,1.2,3.39,2.13c0.96,0.94,1.65,2.04,2.07,3.33h12.39c-0.73-3.6-2.11-6.76-4.16-9.5c-2.05-2.73-4.61-4.85-7.68-6.34
	c-3.07-1.49-6.42-2.24-10.04-2.24c-4.41,0-8.28,0.94-11.63,2.82c-3.35,1.88-5.94,4.54-7.76,7.97c-1.83,3.43-2.74,7.41-2.74,11.92
	v17.95c0,4.27,0.93,8.02,2.78,11.26c1.85,3.24,4.48,5.74,7.87,7.51c3.39,1.77,7.3,2.66,11.74,2.66c4.41,0,8.28-0.94,11.63-2.83
	c3.35-1.88,5.93-4.55,7.76-7.99c1.83-3.45,2.74-7.43,2.74-11.95v-11.88h-21.09V1051.17z"/>
<path class="st6" d="M1491.34,1047.41c2.55-1.51,4.53-3.63,5.92-6.38c1.39-2.75,2.09-5.93,2.09-9.56c0-3.63-0.7-6.81-2.09-9.56
	c-1.4-2.75-3.36-4.88-5.9-6.38c-2.54-1.51-5.48-2.26-8.83-2.26h-15.19h-6.9h-4.56v60.88h11.46v-24.48h6.95l13.72,24.48h13.89
	l-14.55-25.08C1488.77,1048.68,1490.1,1048.14,1491.34,1047.41z M1467.34,1024.31h14.27c1.2,0,2.25,0.29,3.14,0.88
	c0.89,0.59,1.58,1.42,2.07,2.51c0.49,1.09,0.73,2.34,0.73,3.76c-0.03,1.42-0.29,2.68-0.77,3.77c-0.49,1.09-1.18,1.92-2.07,2.51
	c-0.89,0.59-1.92,0.88-3.1,0.88h-14.27V1024.31z"/>
<path class="st6" d="M1542.68,1015.46c-3.36-1.85-7.25-2.78-11.65-2.78c-4.41,0-8.29,0.93-11.65,2.78c-3.36,1.86-5.96,4.48-7.8,7.87
	c-1.84,3.39-2.76,7.32-2.76,11.78v17.24c0,4.46,0.92,8.39,2.76,11.78c1.84,3.39,4.44,6.01,7.8,7.87c3.36,1.86,7.25,2.78,11.65,2.78
	c4.41,0,8.29-0.93,11.65-2.78c3.36-1.86,5.96-4.48,7.8-7.87c1.84-3.39,2.76-7.32,2.76-11.78v-17.24c0-4.46-0.92-8.39-2.76-11.78
	S1546.04,1017.32,1542.68,1015.46z M1541.36,1052.64c0,2.12-0.43,3.99-1.28,5.61c-0.85,1.62-2.06,2.87-3.62,3.74
	c-1.56,0.88-3.38,1.32-5.44,1.32c-2.06,0-3.88-0.44-5.44-1.32c-1.56-0.88-2.77-2.13-3.62-3.74c-0.85-1.62-1.28-3.49-1.28-5.61
	v-17.83c0-2.12,0.43-3.99,1.28-5.61c0.85-1.62,2.06-2.87,3.62-3.74c1.56-0.88,3.38-1.32,5.44-1.32c2.06,0,3.88,0.44,5.44,1.32
	c1.56,0.88,2.77,2.13,3.62,3.74c0.85,1.62,1.28,3.49,1.28,5.61V1052.64z"/>
<path class="st6" d="M1595.83,1052.43c0,3.49-0.94,6.19-2.82,8.12c-1.88,1.93-4.54,2.89-7.97,2.89c-3.4,0-6.04-0.96-7.91-2.89
	c-1.87-1.92-2.8-4.63-2.8-8.12v-39.12h-11.46v38.83c0,4.77,0.86,8.85,2.59,12.24c1.73,3.39,4.25,5.97,7.57,7.74
	c3.32,1.77,7.32,2.66,12.01,2.66c4.69,0,8.7-0.89,12.03-2.66c3.33-1.77,5.87-4.35,7.62-7.74c1.74-3.39,2.61-7.47,2.61-12.24v-38.83
	h-11.46V1052.43z"/>
<path class="st6" d="M1660.14,1022.18c-1.59-2.82-3.83-5-6.72-6.55c-2.89-1.55-6.23-2.32-10.02-2.32h-12.93h-6.23h-5.23v60.84h11.46
	v-23.6h12.93c3.79,0,7.13-0.77,10.02-2.3c2.89-1.53,5.13-3.7,6.72-6.51c1.59-2.8,2.39-6.06,2.39-9.77
	C1662.53,1028.26,1661.73,1024.99,1660.14,1022.18z M1649.77,1035.9c-0.59,1.15-1.4,2.03-2.45,2.66c-1.05,0.63-2.25,0.94-3.62,0.94
	h-13.22v-15.15h13.22c1.39,0,2.62,0.31,3.66,0.94c1.05,0.63,1.85,1.52,2.43,2.68c0.57,1.16,0.86,2.49,0.86,4
	C1650.64,1033.45,1650.35,1034.76,1649.77,1035.9z"/>
<path class="st7" d="M1366.61,1109.11c-0.89-1.61-2.19-2.84-3.89-3.71c-1.71-0.87-3.53-1.3-5.48-1.3c-3.72-0.03-6.82,1.13-9.29,3.51
	c-2.47,2.37-3.71,5.56-3.71,9.55c0,4.03,1.23,7.25,3.69,9.65c2.46,2.41,5.55,3.61,9.27,3.61c1.84,0,3.62-0.44,5.33-1.31
	c1.71-0.87,3.04-2.14,3.99-3.82l0.1,4.61l0.1-0.1h4.04v-25.3h-4.1L1366.61,1109.11z M1366.36,1119.28c-0.31,1.31-0.8,2.52-1.49,3.61
	c-0.68,1.09-1.68,1.98-2.99,2.66c-1.31,0.68-2.81,1.03-4.48,1.03c-2.56,0-4.71-0.85-6.45-2.56c-1.74-1.71-2.61-3.94-2.61-6.71
	c0-2.77,0.87-4.99,2.61-6.68c1.74-1.69,3.89-2.53,6.45-2.53l0.05-0.05c1.67,0,3.16,0.34,4.45,1.02c1.3,0.68,2.29,1.57,2.97,2.66
	c0.68,1.09,1.18,2.3,1.49,3.61C1366.67,1116.65,1366.67,1117.96,1366.36,1119.28z"/>
<path class="st7" d="M1389.5,1126.37c-2.66,0-3.99-1.62-3.99-4.86v-13.36h7.88v-3.58h-7.83v-7.43l-4.2,0.46v6.96h-5.07v3.58h5.07
	v13.36c0,5.87,2.66,8.76,7.99,8.65c1.57-0.03,3.21-0.44,4.92-1.23l-1.23-3.48C1391.81,1126.06,1390.63,1126.37,1389.5,1126.37z"/>
<path class="st7" d="M1437.23,1093.96v21.51c0,3.38-0.96,6.04-2.89,7.99c-1.93,1.95-4.34,2.92-7.25,2.92c-2.9,0-5.34-0.96-7.32-2.87
	c-1.98-1.91-2.97-4.57-2.97-7.99v-21.51h-4.4v21.51c0,4.78,1.43,8.47,4.28,11.06c2.85,2.59,6.32,3.89,10.42,3.89
	c4.13,0,7.59-1.31,10.37-3.92c2.78-2.61,4.17-6.29,4.17-11.03v-21.51l-0.05-0.05H1437.23z"/>
<path class="st7" d="M1467.28,1126.11c-4.57,0-8.07-1.36-10.5-4.07c-2.42-2.71-3.67-6.05-3.74-10.01
	c-0.03-3.99,1.19-7.39,3.66-10.19c2.48-2.8,6-4.2,10.57-4.2c3.99,0,7.34,1.33,10.04,3.99l3.07-2.87c-3.65-3.58-8.02-5.38-13.11-5.38
	c-4.03,0-7.49,0.91-10.39,2.74c-2.9,1.83-5.02,4.12-6.35,6.89c-1.33,2.76-1.98,5.79-1.95,9.06c0.03,5.12,1.66,9.45,4.89,12.98
	c3.23,3.53,7.83,5.3,13.8,5.3c5.29,0,9.73-1.78,13.31-5.32l-3.12-3.07C1474.71,1124.73,1471.31,1126.11,1467.28,1126.11z"/>
<path class="st7" d="M1526.89,1099.38c-1.43-1.67-3.33-3-5.68-3.99c-2.36-0.99-5-1.48-7.94-1.48h-13.06v0.05v35.84h13.06
	c3,0,5.69-0.52,8.06-1.56c2.37-1.04,4.27-2.44,5.68-4.2c1.42-1.76,2.48-3.7,3.2-5.84c0.72-2.13,1.08-4.38,1.08-6.73
	c0-2.25-0.38-4.41-1.13-6.48C1529.41,1102.93,1528.32,1101.06,1526.89,1099.38z M1523.38,1121.22c-2.3,2.75-5.67,4.12-10.11,4.12
	h-8.6v-27.14h8.6c4.34,0,7.68,1.3,10.04,3.89c2.36,2.59,3.53,5.7,3.53,9.32C1526.83,1115.21,1525.68,1118.48,1523.38,1121.22z"/>
<path class="st7" d="M1558.23,1109.11c-0.89-1.61-2.19-2.84-3.89-3.71c-1.71-0.87-3.53-1.3-5.48-1.3c-3.72-0.03-6.82,1.13-9.29,3.51
	c-2.47,2.37-3.71,5.56-3.71,9.55c0,4.03,1.23,7.25,3.69,9.65c2.46,2.41,5.55,3.61,9.27,3.61c1.84,0,3.62-0.44,5.33-1.31
	c1.71-0.87,3.04-2.14,3.99-3.82l0.1,4.61l0.1-0.1h4.04v-25.3h-4.1L1558.23,1109.11z M1557.97,1119.28c-0.31,1.31-0.8,2.52-1.49,3.61
	c-0.68,1.09-1.68,1.98-2.99,2.66c-1.31,0.68-2.81,1.03-4.48,1.03c-2.56,0-4.71-0.85-6.45-2.56c-1.74-1.71-2.61-3.94-2.61-6.71
	c0-2.77,0.87-4.99,2.61-6.68c1.74-1.69,3.89-2.53,6.45-2.53l0.05-0.05c1.67,0,3.16,0.34,4.45,1.02c1.3,0.68,2.29,1.57,2.97,2.66
	c0.68,1.09,1.18,2.3,1.49,3.61C1558.28,1116.65,1558.28,1117.96,1557.97,1119.28z"/>
<polygon class="st7" points="1584.85,1114.44 1580.6,1125.34 1576.3,1114.39 1572.2,1104.5 1567.6,1104.5 1578.3,1129.85 
	1582.91,1129.85 1593.56,1104.5 1588.95,1104.5 "/>
<path class="st7" d="M1602.31,1094.37c-0.92-0.48-1.84-0.49-2.76-0.03c-0.92,0.46-1.38,1.27-1.38,2.43c0,1.16,0.46,1.98,1.38,2.46
	c0.92,0.48,1.84,0.49,2.76,0.03s1.38-1.27,1.38-2.43S1603.23,1094.84,1602.31,1094.37z"/>
<rect x="1598.78" y="1104.4" class="st7" width="4.2" height="25.4"/>
<path class="st7" d="M1629.81,1119.69c-0.48-0.9-1.03-1.61-1.66-2.12c-0.63-0.51-1.49-0.95-2.59-1.31s-2.02-0.61-2.79-0.74
	c-0.77-0.14-1.75-0.27-2.94-0.41c-4.17-0.48-6.26-1.72-6.3-3.74c-0.03-1.2,0.54-2.12,1.71-2.77c1.18-0.65,2.69-0.96,4.53-0.92
	c2.94,0,5.31,0.82,7.12,2.46l0.05-0.05l2.41-2.76c-2.49-2.25-5.7-3.38-9.63-3.38c-1.74-0.03-3.35,0.19-4.84,0.67
	s-2.76,1.3-3.81,2.46c-1.06,1.16-1.59,2.59-1.59,4.3c0,1.3,0.28,2.4,0.84,3.3c0.56,0.91,1.37,1.61,2.43,2.13
	c1.06,0.51,2.1,0.9,3.12,1.18c1.02,0.27,2.25,0.5,3.69,0.67c2.22,0.27,3.92,0.7,5.1,1.28c1.18,0.58,1.75,1.5,1.71,2.77
	c-0.03,1.4-0.69,2.41-1.97,3.02c-1.28,0.61-2.76,0.92-4.43,0.92c-3.89,0-6.9-1.3-9.01-3.89l-2.41,2.92
	c2.53,3.17,6.3,4.76,11.32,4.76c3,0,5.51-0.66,7.53-1.97c2.01-1.31,3.04-3.18,3.07-5.61
	C1630.51,1121.64,1630.29,1120.59,1629.81,1119.69z"/>
</svg>
